<?xml version="1.0" encoding="utf-8"?>
<!-- Generator: Adobe Illustrator 24.2.1, SVG Export Plug-In . SVG Version: 6.00 Build 0)  -->
<svg version="1.1" xmlns="http://www.w3.org/2000/svg" xmlns:xlink="http://www.w3.org/1999/xlink" x="0px" y="0px"
	 viewBox="0 0 780.34 410.3" style="enable-background:new 0 0 780.34 410.3;" xml:space="preserve">
<style type="text/css">
	.st0{display:none;}
	.st1{display:inline;}
	.st2{opacity:0.45;fill:#F6F5AE;enable-background:new    ;}
	.st3{fill:none;stroke:#707070;stroke-dasharray:22;}
	.st4{fill:#FFFFFF;enable-background:new    ;}
	.st5{opacity:0.45;fill:#C29BD1;enable-background:new    ;}
</style>
<g id="Layer_1" class="st0">
	<g id="Groupe_77" class="st1">
		<path id="Tracé_589" class="st2" d="M39.26,38.56c41-52.3,627.3-27.19,678.07-17.26s66.21,307.9,34.21,331.08
			S67.44,455.5,13.24,375.55C-11.01,333.05-1.75,90.86,39.26,38.56z"/>
		<path id="Tracé_590" class="st3" d="M50.88,32.56c41-52.3,627.3-27.19,678.06-17.26s66.21,307.9,34.21,331.08
			S79.05,449.5,24.85,369.55C0.64,327.05,9.86,84.86,50.88,32.56z"/>
	</g>
</g>
<g id="Layer_2">
	<g id="Groupe_77_1_">
		<path id="Tracé_589_2_" class="st4" d="M39.26,38.56c41-52.3,627.3-27.19,678.07-17.26s66.21,307.9,34.21,331.08
			S67.44,455.5,13.24,375.55C-11.01,333.05-1.75,90.86,39.26,38.56z"/>
		<path id="Tracé_589_1_" class="st5" d="M39.26,38.56c41-52.3,627.3-27.19,678.07-17.26s66.21,307.9,34.21,331.08
			S67.44,455.5,13.24,375.55C-11.01,333.05-1.75,90.86,39.26,38.56z"/>
		<path id="Tracé_590_1_" class="st3" d="M50.88,32.56c41-52.3,627.3-27.19,678.06-17.26s66.21,307.9,34.21,331.08
			S79.05,449.5,24.85,369.55C0.64,327.05,9.86,84.86,50.88,32.56z"/>
	</g>
</g>
</svg>
