<svg id="LaMouche" xmlns="http://www.w3.org/2000/svg" viewBox="0 0 489.92 396.23"><defs><style>.cls-1{fill:#342e37;}</style></defs><path class="cls-1" d="M130.16,154.14a2.06,2.06,0,0,1-2.72-.27,1.64,1.64,0,0,1,.24-2.37c3.73-3.06,7-4.46,9.71-4.53,6.52,0,10.29,6.85,11.87,18.67,1.33,10.76,1.21,25.84-.2,43.54-3.19,42.56-12.82,98.2-20.49,137.57l4.62,1.83c56.67,23.45,114,47,137,40,9.54-2.82,13.1-11.05,8.16-27a1.84,1.84,0,1,1,3.53-1c5.38,18.37,1,27.88-10.63,31.18-24.42,7.53-82.41-16.39-139.43-39.88l-4-1.42c-5,25.92-8.79,43.72-9.16,44-.51,1.66-1.94,2.21-3.57,1.36-3.29-1.36-10.57-11-16-21.83-5.79-10.86-10.05-23.28-7.3-30.22,2.64-5.91,9.7-8,24.21-2.06,3.3,1.36,6.25,2.68,9.24,3.66,7.3-39.06,16.9-94.36,20.39-136.55,1-17.39,1.47-32.09.13-42.86-1.43-9.74-3.95-15.48-8.4-15.58C135.66,150.57,133.15,151.7,130.16,154.14Zm-14.32,238c.78-4.38,4.47-20.82,8.72-43q-5.44-2.09-9.88-4.07c-12.2-5-17.8-3.82-19.57.12-2.3,6,1.75,17,6.92,27.1C106.93,381.65,112.65,389.76,115.84,392.13Z"/><path class="cls-1" d="M281.9,361a1.77,1.77,0,0,1-1.25,2.28,1.94,1.94,0,0,1-2.25-1.6c-10.33-44.58,6.15-152,29.59-212.12,6.88-17.5,14.41-31.16,22.28-37.93,8.62-7.37,17.15-6.87,25.31,4.23,12.1,16.29,22.87,56.45,30.79,132.36,5.55,51.31,9,72.23,13.48,71.64,4.18-.61,11-17.43,21.56-44.51,7.79-19.8,17.48-44.91,30.53-72.77,21-45.6,31.23-62.42,35.47-60.29,4.93,2.21,1.76,23.84-2.36,55-6.78,47.69-16.84,118-9.79,171.56a2.85,2.85,0,0,1-1.6,2.24,2.29,2.29,0,0,1-2.24-1.59c-6.64-54.17,3.11-124.89,9.9-172.58,4.32-29.75,7.05-50.41,4.77-51.66-2.31-.92-11.16,15.7-30.85,58.68-13.08,28.2-22.74,53-30.54,72.78-11,28.4-18.26,45.86-24.51,46.62-7.26.65-11.67-20.71-17.29-74.77-8-75.22-18.44-115-30.27-130.6-6.33-8.85-13.16-9.19-19.88-3.68-7.49,6.46-14.62,19.47-21.46,36.63C287.91,210.3,271.87,316.76,281.9,361Z"/><g id="corps"><path d="M120.16,93.32c-3.16-.78-6.67.49-9.57,1.65a84.62,84.62,0,0,0-13,6.8,149.31,149.31,0,0,0-13,9.06A77.24,77.24,0,0,0,75,119.41a22.46,22.46,0,0,0-2.92,3.94,78.29,78.29,0,0,0-5.34,10.78c-2.62,6.72-3.7,14.19-1.44,21.17,1.59,4.91,5.06,10.31,10.13,12.17a48.3,48.3,0,0,0,9.52,1.94c10.58,1.55,21.28,2.43,31.94,3.06s21.41,1.08,32-1c13.48-2.62,27-9.51,33.67-22.08A35.23,35.23,0,0,0,186.66,131c-.33-5.44-2.12-11.3-5.85-15.4a47.94,47.94,0,0,0-7.16-6A110.87,110.87,0,0,0,161,101.51c-10.1-5.53-21.69-10.08-33.38-9.64a35,35,0,0,0-8.2,1.28,1.5,1.5,0,0,0,.8,2.89c10.65-3,22.15.06,32,4.44a99.28,99.28,0,0,1,23.57,14.58,20.15,20.15,0,0,1,5.88,7.59,27.56,27.56,0,0,1,1.14,17.48,33.45,33.45,0,0,1-8.76,15.73,45,45,0,0,1-17.18,10.38c-10.57,3.66-21.63,4-32.68,3.6q-15.52-.61-31-2.37c-4.16-.46-8.33-1-12.45-1.76a35,35,0,0,1-3.93-.92l-.7-.23c-.42-.14.12.1-.27-.12a14.65,14.65,0,0,1-3-2.2c-4.46-4.26-6.21-10.77-5.81-16.79.5-7.63,4.1-14.93,8-21.35,1.52-2.49,4.15-4.83,6.51-6.9a125.21,125.21,0,0,1,11.13-8.62,126.88,126.88,0,0,1,12.66-7.84,41.67,41.67,0,0,1,10.76-4.4,8.19,8.19,0,0,1,1.77-.24c.31,0,.61,0,.91,0h.11a2.84,2.84,0,0,1,.42.09c1.88.46,2.68-2.43.8-2.9Z"/></g><g id="aile_droite"><path d="M120.32,92.57c-6.38-23-8.76-48.77-24.91-67.66C91,19.78,85.89,15,79.53,12.52c-6.57-2.57-14-3-21-3.16a106.1,106.1,0,0,0-42.82,8.28C10,20.06,3.51,23,1.07,29.17a19.72,19.72,0,0,0-.82,9.76A14,14,0,0,0,1.31,43c2.3,5.09,7.25,9,11.58,12.25A179,179,0,0,0,33.43,68.37c7.92,4.49,16,8.68,24.13,12.79C65.12,85,72.73,88.71,80.29,92.53a167.11,167.11,0,0,1,15.39,8.38c.39.25.78.51,1.16.78l.5.36.22.17c1.49,1.2,3.63-.91,2.12-2.12-3.73-3-8.2-5.16-12.42-7.36-6.77-3.53-13.64-6.89-20.47-10.3C51.32,74.72,35.68,67,21.22,57.47,16,54,10.56,50.26,6.46,45.42a16.85,16.85,0,0,1-1.84-2.55q-.36-.61-.66-1.26a1.52,1.52,0,0,1-.18-.43c-.08-.25-.17-.51-.24-.77a18.68,18.68,0,0,1-.34-7.7,12,12,0,0,1,5-7.8,40.76,40.76,0,0,1,8.3-4.35,99.94,99.94,0,0,1,10.06-3.67,103.66,103.66,0,0,1,20.7-4.1A101.7,101.7,0,0,1,68.44,13a40.77,40.77,0,0,1,10.29,2.4,28.85,28.85,0,0,1,8.45,5.38c18.6,16.48,22.69,41.67,28.21,64.62.64,2.66,1.31,5.32,2,8a1.5,1.5,0,0,0,2.89-.8Z"/></g><g id="aile_gauche"><path d="M140.65,95.47c5.94-9,11.9-18,18.54-26.49,2.22-2.84,4.78-5.82,7-8.15a91.88,91.88,0,0,1,7-6.26c6.59-5.66,13.22-11.59,17.93-19a31.27,31.27,0,0,0,4.77-11.91,23.52,23.52,0,0,0,.11-6.65A14,14,0,0,0,193.28,11C188.53,4.17,180.43,1.3,172.5.38a71.51,71.51,0,0,0-20.6.92,76.82,76.82,0,0,0-33.47,15C113.66,20,108,24.43,107.11,30.78c-.58,3.95.18,8,.76,12,1.27,8.54,2.82,17,4.41,25.51,1.4,7.48,2.82,15,4.48,22.41.2.87.4,1.75.62,2.62a1.51,1.51,0,0,0,2.9-.8c-1.52-5.81-2.56-11.78-3.71-17.67-1.66-8.57-3.25-17.16-4.68-25.77-.57-3.41-1.12-6.83-1.57-10.26a35,35,0,0,1-.41-5.87,12.26,12.26,0,0,1,3.73-8.36,71.3,71.3,0,0,1,30.3-18.24A75,75,0,0,1,167.8,3.05c6.81.18,14.35,1.51,19.72,6a18.41,18.41,0,0,1,3.8,4.36,11.25,11.25,0,0,1,1.81,5.92,24.14,24.14,0,0,1-2.92,11.72C186.32,38.6,180,44.62,173.68,50.14c-2.58,2.26-5.23,4.43-7.75,6.74A67.51,67.51,0,0,0,160.21,63c-6.76,7.86-12.56,16.58-18.32,25.18Q140,91.07,138.06,94c-1.07,1.61,1.53,3.12,2.59,1.51Z"/></g><g id="yeux"><path d="M123.74,119.36c-2.82-4.93-8.06-8.58-13.83-8.74a13.55,13.55,0,0,0-12.64,8.29c-2.45,6,1.08,11.75,4.81,16.26,3.57,4.32,8.56,8.47,14.45,8.58,5.63.11,11.52-3.82,11.82-9.78L125.79,135c4.06,4.86,11,8.4,17.42,6.48,5-1.49,8.42-6.15,9.39-11.11,2.28-11.7-9.14-21.29-20.09-21.68a12.88,12.88,0,0,0-8.43,2.36c-2.93,2.27-3.66,5.84-3.77,9.37,0,1.93,3,1.93,3,0,.08-2.57.45-5.37,2.63-7a9.78,9.78,0,0,1,5.88-1.7,19.9,19.9,0,0,1,12.79,5c3.4,3,5.64,7.14,5.26,11.73a12,12,0,0,1-6.22,9.74c-5.57,2.72-12.16-.94-15.74-5.23-.89-1.07-2.5-.13-2.56,1.06-.2,4-4.34,6.55-8,6.77-4.72.27-8.85-2.92-11.86-6.21s-7-8.15-5.9-13a10.43,10.43,0,0,1,8.84-7.84c5.25-.55,10.19,2.78,12.72,7.2a1.5,1.5,0,0,0,2.59-1.51Z"/></g><g id="iris"><path d="M124.87,127.64a7.22,7.22,0,0,0-6.45-3.19c-2.61.21-5,2.27-4.84,4.55a6.68,6.68,0,0,0,2,3.78,10.17,10.17,0,0,0,5.93,3.7c2.46.36,5.36-1.1,5.43-3.27a8.51,8.51,0,0,0,2.8,2,7.35,7.35,0,0,0,4.19.57,5.32,5.32,0,0,0,4.09-6.68c-.89-2.73-3.88-4.65-7.06-5.24-2-.38-4.51-.14-5.64,1.38a4.42,4.42,0,0,0-.7,2.57"/><path d="M126.16,126.88c-2-3-6-4.79-9.52-3.59-3.35,1.14-5.57,4.52-4,7.94,1.47,3.15,5,6.14,8.41,6.7,3.2.52,7-1.2,7.33-4.72l-2.56,1.06c2.63,2.68,7.16,4.2,10.59,2.06a6.81,6.81,0,0,0,2.74-8.34c-2.61-6.07-15.68-9.19-16.09-.22-.09,1.93,2.91,1.93,3,0a2.26,2.26,0,0,1,1.75-2.45,6.7,6.7,0,0,1,3.24.06c2.11.5,4.48,1.71,5.37,3.82a3.78,3.78,0,0,1-1.53,4.54c-2.25,1.46-5.27.12-7-1.59a1.51,1.51,0,0,0-2.56,1.06c-.17,1.84-3.21,2-4.47,1.62a10.05,10.05,0,0,1-5.32-4.42c-1.16-2,.1-3.76,2.16-4.33a5.54,5.54,0,0,1,5.8,2.32c1.08,1.59,3.68.09,2.59-1.52Z"/></g></svg>