<?xml version="1.0" encoding="utf-8"?>
<!-- Generator: Adobe Illustrator 24.2.1, SVG Export Plug-In . SVG Version: 6.00 Build 0)  -->
<svg version="1.1" id="Layer_1" xmlns="http://www.w3.org/2000/svg" xmlns:xlink="http://www.w3.org/1999/xlink" x="0px" y="0px"
	 viewBox="0 0 1181.6 622" style="enable-background:new 0 0 1181.6 622;" xml:space="preserve">
<style type="text/css">
	.st0{fill:#352E38;}
	.st1{font-family:'Arandelle2';}
	.st2{font-size:502.2683px;}
	.st3{fill:#010101;}
	.st4{font-family:'ReenieBeanie';}
	.st5{font-size:92px;}
</style>
<text transform="matrix(0.9951 9.858562e-02 -9.858562e-02 0.9951 141.3701 546.3002)" class="st0 st1 st2">L</text>
<text transform="matrix(0.9951 9.858562e-02 -9.858562e-02 0.9951 405.0696 493.7718)" class="st0 st1 st2">M</text>
<g id="corps_4_">
	<g>
		<path class="st3" d="M188.7,150.3c-4.5-1.1-9.7,0.8-13.8,2.5c-6.6,2.7-12.8,6.2-18.9,9.9c-6.5,4.1-12.9,8.5-18.9,13.2
			c-4.9,3.8-9.8,7.9-14.1,12.4c-1.6,1.7-3,3.5-4.1,5.5c-3,5.1-5.8,10.4-8,16c-3.9,9.8-5.5,20.8-2.1,31c1.4,4.4,3.7,8.6,6.9,12
			c2.1,2.3,4.7,4.4,7.7,5.4c4.5,1.6,9.4,2.1,14,2.8c15.4,2.2,31,3.5,46.6,4.4c15.6,0.9,31.3,1.6,46.7-1.4
			c19.6-3.8,39.5-13.7,49.2-32c4.4-8.2,6.7-17.6,6.2-26.9c-0.5-7.8-3-16.4-8.4-22.2c-3.1-3.3-6.8-6.1-10.4-8.8
			c-5.9-4.4-12.2-8.4-18.6-11.9c-14.7-8-31.6-14.7-48.6-14c-4,0.2-8,0.7-11.9,1.8c-1.9,0.5-1.1,3.4,0.8,2.9
			c15.8-4.5,32.9,0.1,47.5,6.5c12.5,5.6,24.6,12.9,35.1,21.7c1.4,1.2,2.8,2.4,4,3.7c2.1,2.3,3.7,5.2,4.9,8
			c3.4,8.1,3.6,17.4,1.5,25.9c-2.2,8.8-6.7,17-13.1,23.4c-7.1,7.1-16.1,12.1-25.5,15.4c-15.6,5.4-32,6-48.3,5.3
			c-15.4-0.6-30.8-1.8-46.1-3.5c-6.1-0.7-12.2-1.5-18.3-2.6c-1.9-0.4-3.9-0.8-5.7-1.4c-0.3-0.1-0.7-0.2-1-0.3c-0.4-0.1,0,0-0.1,0
			c-0.1-0.1-0.3-0.1-0.4-0.2c-1.8-0.9-3.4-2.2-4.8-3.6c-6.5-6.5-9.1-16.2-8.4-25.2c0.8-11.3,6.1-22.1,12-31.6c1-1.7,2.2-2.9,3.6-4.5
			c1.9-2,3.9-3.9,6-5.7c5.3-4.6,10.9-8.9,16.7-12.9c6-4.2,12.2-8.1,18.7-11.5c5.1-2.7,10.4-5.3,16.1-6.5c1-0.2,1.6-0.3,2.6-0.3
			c0.4,0,0.8,0,1.3,0c0.4,0,0.3,0,0.4,0c0.2,0,0.4,0.1,0.6,0.1C189.8,153.7,190.6,150.8,188.7,150.3L188.7,150.3z"/>
	</g>
</g>
<g id="aile_x5F_droite_3_">
	<g>
		<path class="st3" d="M188.4,148.7c-4.7-17-7.8-34.3-12.7-51.2c-5-17-11.8-33.8-23.4-47.5c-6.4-7.6-14-14.8-23.4-18.5
			c-4.9-1.9-10.2-2.9-15.4-3.6c-5.3-0.7-10.6-1-16-1.1c-21.2-0.3-42.4,3.8-61.9,12c-8.5,3.6-18.1,7.8-21.5,17.1
			c-1.7,4.7-1.6,9.9-0.8,14.8c0.3,1.7,0.7,3.3,1.5,4.9c1.5,3.2,3.9,6,6.4,8.6c3.3,3.4,7,6.4,10.8,9.2c9.5,7.2,19.8,13.3,30.2,19.1
			c11.7,6.6,23.6,12.8,35.6,18.8c11,5.6,22.1,11,33,16.5c7.6,3.9,15.4,7.6,22.6,12.3c0.5,0.4,1.1,0.7,1.6,1.1
			c0.2,0.2,0.5,0.3,0.7,0.5c0.1,0.1,0.3,0.3,0.1,0.1c0.1,0.1,0.2,0.2,0.4,0.3c1.5,1.2,3.6-0.9,2.1-2.1c-5.5-4.4-12.1-7.6-18.3-10.8
			c-10-5.2-20.2-10.2-30.3-15.3c-11.7-5.8-23.4-11.7-34.9-17.9c-11-5.9-21.8-12-32.2-18.9C34.7,92,26.8,86.5,20.8,79.4
			c-1-1.2-1.9-2.5-2.8-4c-0.8-1.4-1.1-2.1-1.5-3.6c-1-3.9-1.1-8.4-0.3-12.3c1-4.7,3.7-8.4,7.6-11.2c3.8-2.8,8.3-4.7,12.6-6.6
			c4.8-2,9.7-3.8,14.7-5.3c10-3.1,20.3-5.1,30.8-6c10.3-0.9,20.8-0.9,31.1,0.4c5.2,0.6,10.4,1.6,15.3,3.6c4.7,1.9,8.9,4.7,12.7,8.1
			c13.6,12,22.5,27.8,28.4,44.8c5.8,16.5,9.2,33.6,13.2,50.5c0.9,3.9,1.9,7.9,3,11.8C186,151.3,188.9,150.5,188.4,148.7L188.4,148.7
			z"/>
	</g>
</g>
<g id="aile_x5F_gauche_4_">
	<g>
		<path class="st3" d="M218.4,152.4c8.7-13.1,17.4-26.2,27-38.6c2.1-2.6,4.2-5.2,6.4-7.7c1.5-1.7,2.7-3.1,4.1-4.5
			c3.1-3.3,6.7-6.2,10.2-9.2c9.6-8.2,19.2-16.8,26.2-27.4c3.4-5.3,6.2-11.1,7.3-17.4c0.5-3.1,0.7-6.3,0.3-9.5
			c-0.2-1.8-0.6-3.3-1.4-4.9c-0.7-1.5-1.5-2.9-2.4-4.2c-6.8-9.9-18.5-14.1-30-15.4c-9.9-1.2-20.4-0.5-30.2,1.3
			c-17.7,3.2-34.6,10.7-48.8,21.7c-3.6,2.8-7,5.7-10.2,9c-3.3,3.4-5.8,7.2-6.5,12c-0.9,5.8,0.3,11.9,1.1,17.6
			c1.9,12.6,4.2,25.2,6.5,37.8c2,10.9,4.1,21.8,6.5,32.7c0.3,1.3,0.6,2.6,0.9,3.8c0.5,1.9,3.4,1.1,2.9-0.8
			c-2.3-8.6-3.8-17.4-5.5-26.2c-2.5-12.8-4.9-25.6-7-38.5c-0.8-5-1.6-10-2.3-15c-0.4-3.1-0.7-6.2-0.5-9.3c0.4-4.8,2.6-8.6,5.9-12
			c12.3-12.6,28.3-21.8,45.1-26.9c11.3-3.4,23.2-5,34.9-4.7c10.1,0.3,21.2,2.3,29.2,8.9c2.3,1.9,4.2,4.1,5.8,6.6
			c0.8,1.3,1.5,2.7,2.1,4.1c0.6,1.4,0.6,3.1,0.7,4.7c0.2,6.1-1.4,12-4.1,17.4c-5.6,11.3-15,20.3-24.4,28.5
			c-3.8,3.4-7.8,6.6-11.6,10.1c-1.3,1.2-2.7,2.5-3.8,3.9c-1.4,1.7-3,3.3-4.5,5.1c-10,11.6-18.6,24.5-27.1,37.2
			c-1.9,2.8-3.7,5.6-5.6,8.4C214.8,152.5,217.4,154,218.4,152.4L218.4,152.4z"/>
	</g>
</g>
<g id="yeux_3_">
	<g>
		<path class="st3" d="M193.5,188.3c-4-7-11.5-12.2-19.7-12.5c-7.8-0.2-15.2,4.7-18.1,11.9c-3.4,8.5,1.8,16.7,7,23.1
			c5.1,6.2,12.3,12.3,20.8,12.4c7.8,0.1,16.2-5.3,16.6-13.7c-0.9,0.4-1.7,0.7-2.6,1.1c5.8,7,15.8,12.1,24.9,9.4
			c7.1-2.1,12-8.8,13.4-15.9c3.2-16.7-13.2-30.3-28.8-31c-4.3-0.2-8.8,0.7-12.2,3.4c-4,3.2-5,8.3-5.1,13.1c-0.1,1.9,2.9,1.9,3,0
			c0.1-3.9,0.7-7.9,3.7-10.6c2.4-2.1,5.9-2.9,9-3c6.9-0.2,14.1,2.7,19.4,7.2c5.3,4.4,8.9,10.8,8.4,17.9c-0.4,6.1-3.8,12.3-9.4,15.2
			c-8.5,4.3-18.6-1.1-24.1-7.8c-0.9-1.1-2.5-0.1-2.6,1.1c-0.3,6.1-6.4,10.1-11.9,10.6c-7.3,0.7-13.7-4.1-18.4-9.2
			c-4.7-5.1-10.5-12.3-9-19.8c1.3-6.4,7.2-11.5,13.6-12.2c8-0.9,15.6,4.1,19.5,10.9C191.9,191.5,194.5,190,193.5,188.3L193.5,188.3z
			"/>
	</g>
</g>
<g id="iris_3_">
	<path class="st3" d="M195.8,200.1c-1.9-2.9-5.7-5-9.5-4.7c-3.8,0.3-7.3,3.3-7.1,6.7c0.1,2.1,1.4,3.9,2.9,5.6
		c2.2,2.5,5.1,4.9,8.7,5.5s7.9-1.6,8-4.8c1.1,1.2,2.5,2.2,4.1,2.9c1.9,0.8,4.1,1.2,6.2,0.8c4.7-0.9,7.3-5.8,6-9.8s-5.7-6.8-10.4-7.7
		c-3-0.6-6.6-0.2-8.3,2c-0.8,1.1-1,2.5-1,3.8"/>
	<g>
		<path class="st3" d="M197.1,199.3c-2.2-3.3-5.9-5.4-9.8-5.5c-3.6-0.1-7.5,1.9-9,5.3c-1.8,3.9,0.8,7.6,3.5,10.4
			c2.6,2.7,6.1,5.1,10.1,5.1c3.8,0,8.2-2.2,8.5-6.4c-0.9,0.4-1.7,0.7-2.6,1.1c3,3.1,7.6,5,11.9,4.1c3.4-0.7,6.2-3.5,7-6.9
			c2-8.1-7.1-13.6-14.1-13.8c-2.1-0.1-4.3,0.3-6,1.6c-2,1.4-2.6,3.6-2.7,6c-0.1,1.9,2.9,1.9,3,0c0.1-1.9,0.7-3.5,2.6-4.1
			c1.7-0.6,3.5-0.5,5.2-0.2c3.4,0.7,7.2,2.6,8.7,6c1.3,2.8,0,6.2-2.6,7.8c-3.6,2.1-8.3,0.2-11-2.5c-1-1-2.5-0.2-2.6,1.1
			c-0.2,3.1-5,3.7-7.3,3.1c-3.5-0.9-6.7-3.9-8.5-7c-0.9-1.5-1.2-3-0.3-4.5c0.8-1.4,2.3-2.3,3.8-2.8c3.5-1,7.5,0.7,9.4,3.7
			C195.6,202.5,198.2,201,197.1,199.3L197.1,199.3z"/>
	</g>
</g>
<text transform="matrix(1 0 0 1 772.0047 325.2019)" class="st3 st4 st5">WebDesigner</text>
<text transform="matrix(1 0 0 1 771.6304 442.0973)"><tspan x="0" y="0" class="st3 st4 st5">Developpeuse </tspan><tspan x="0" y="110.4" class="st3 st4 st5">FullStack</tspan></text>
</svg>
