<svg id="Layer_1" data-name="Layer 1" xmlns="http://www.w3.org/2000/svg" width="2316" height="868" viewBox="0 0 2316 868"><defs><style>.cls-1{fill:none;}.cls-2{fill:#342e37;}</style></defs><path class="cls-1" d="M969.35,562.35a1.25,1.25,0,0,0-1.41-1.41H879a1.25,1.25,0,0,0-1.41,1.41v41.77h91.81Z"/><path class="cls-2" d="M1228.31,375.4v32.25l90.44-33.9H1230A1.46,1.46,0,0,0,1228.31,375.4Z"/><path class="cls-2" d="M969.35,562.35a1.25,1.25,0,0,0-1.41-1.41H879a1.25,1.25,0,0,0-1.41,1.41v41.77h91.81Z"/><path class="cls-2" d="M1539.29,291.1H1654v26.63H1547.26v32.69h86v26.64h-86v32.69H1654v26.63H1520.42V298.17l-18.55,6.95V435.89h-41.28v-90.7h-31.53v90.7h-41.28v-88l-21.33,8v17.87h-47.7l-90.44,33.9v71.94a1.46,1.46,0,0,0,1.65,1.65h136.49v31.12H1230a32.59,32.59,0,0,1-32.76-32.77V419.31l-19.35,7.25a112,112,0,0,1-3.64,21.74q-4.15,14.7-9.94,14.7H1119.4q-5.14,0-8.92-11.19l-27,10.12v58H994.19V495.39l-24.85,9.32v15.22H928.73L890.37,534.3h77.57a27.41,27.41,0,0,1,20,8.18,26.88,26.88,0,0,1,8.27,19.87V679.59H969.35V630.76H877.54v48.83H850.91V562.35a27.19,27.19,0,0,1,4.1-14.79l-21.73,8.14v49.48h-132L0,868H2316V0Z"/></svg>