<svg id="Layer_1" data-name="Layer 1" xmlns="http://www.w3.org/2000/svg" viewBox="0 0 2316 868"><defs><style>.cls-1{fill:none;}</style></defs><path class="cls-1" d="M969.35,562.35a1.25,1.25,0,0,0-1.41-1.41H879a1.25,1.25,0,0,0-1.41,1.41v41.77h91.81Z"/><path d="M1164.27,249.46H1119.4c-.48,0-.71.85-.71,2.54V412.52c0,1.7.23,2.55.71,2.55h44.87q.6,0,.6-2.55V252C1164.87,250.31,1164.67,249.46,1164.27,249.46Z"/><path d="M991.88,319q-2.31-4.44-9.35-4.43-13.2,0-13.19,21V504.71l24.85-9.32V337Q994.19,323.44,991.88,319Z"/><path d="M1228.31,375.4v32.25l90.44-33.9H1230A1.46,1.46,0,0,0,1228.31,375.4Z"/><path d="M1539.29,291.1,2316,0H0V868L701.25,605.18H662V360.88h75V545.23h96.29V555.7L855,547.56a28.44,28.44,0,0,1,4.07-5.08A27,27,0,0,1,879,534.3h11.42l38.36-14.37H880V337q0-13.4-2.42-17.92t-9.45-4.53Q855,314.59,855,337V519.93H765.68V317.26q0-37.68,24.41-61.58t63.34-23.89q46.19,0,71,39.75Q939.65,250.12,957,241t42.89-9.17q40.46,0,62,23.89t21.55,68.79V461.93l27-10.12q-.56-1.63-1.08-3.51-4.11-14.71-4.11-35.78V252q0-21.06,4.11-35.77t10-14.71h44.87q5.77,0,9.94,14.71t4.16,35.77V412.52c0,5-.18,9.62-.52,14l19.35-7.25V375.4A32.57,32.57,0,0,1,1230,342.64h136.49v13.24l21.33-8V202.72h41.28v85.75h31.53V202.72h41.28v102.4l18.55-6.95V291.1Zm-220.56-15.49q0,23.06-17.07,36.85t-45.45,13.79q-28.26,0-43.25-13.4t-15-38.52V188.41h49.67v85.82q0,12.31,10.89,12.31,10.53,0,10.53-12.31V188.41h49.67Z"/><path d="M1228.31,375.4v32.25l90.44-33.9H1230A1.46,1.46,0,0,0,1228.31,375.4Z"/><path d="M991.88,319q-2.31-4.44-9.35-4.43-13.2,0-13.19,21V504.71l24.85-9.32V337Q994.19,323.44,991.88,319Z"/><path d="M1164.27,249.46H1119.4c-.48,0-.71.85-.71,2.54V412.52c0,1.7.23,2.55.71,2.55h44.87q.6,0,.6-2.55V252C1164.87,250.31,1164.67,249.46,1164.27,249.46Z"/></svg>