<?xml version="1.0" encoding="utf-8"?>
<!-- Generator: Adobe Illustrator 24.2.1, SVG Export Plug-In . SVG Version: 6.00 Build 0)  -->
<svg version="1.1" xmlns="http://www.w3.org/2000/svg" xmlns:xlink="http://www.w3.org/1999/xlink" x="0px" y="0px"
	 viewBox="0 0 132.16 322.84" style="enable-background:new 0 0 132.16 322.84;" xml:space="preserve">
<style type="text/css">
	.st0{display:none;}
	.st1{display:inline;fill:#F6F5AE;}
	.st2{font-family:'MyriadPro-Bold';}
	.st3{font-size:297px;}
	.st4{enable-background:new    ;}
	.st5{fill:#BD92CA;}
</style>
<g id="Layer_1" class="st0">
	<text transform="matrix(1 0 0 1 0 248.5908)" class="st1 st2 st3">?</text>
</g>
<g id="Layer_2">
	<g class="st4">
		<path class="st5" d="M40.99,183.85l-0.3-7.72c-0.89-15.15,4.16-30.59,17.52-46.63c9.5-11.29,17.23-20.79,17.23-30.89
			c0-10.4-6.83-17.23-21.68-17.82c-9.8,0-21.68,3.56-29.4,8.91l-10.1-32.37c10.69-6.24,28.51-12.18,49.6-12.18
			c39.2,0,57.02,21.68,57.02,46.33c0,22.57-13.96,37.42-25.25,49.9c-10.99,12.18-15.44,23.76-15.15,37.12v5.35H40.99z M33.26,224.83
			c0-15.74,10.99-27.03,26.43-27.03c16.04,0,26.43,11.29,26.73,27.03c0,15.44-10.69,27.03-26.73,27.03
			C43.96,251.86,33.26,240.27,33.26,224.83z"/>
	</g>
</g>
</svg>
