<svg id="Layer_1" data-name="Layer 1" xmlns="http://www.w3.org/2000/svg" viewBox="0 0 2316 868.6"><path d="M1237.25,58.73q-21.42,0-33.21,14.35t-11.79,40.36q0,26,11.79,40.46t33.21,14.44q21.42,0,33.3-14.35t11.88-40.55q0-26.19-11.79-40.45T1237.25,58.73Z"/><path d="M1131.79.07V258.93H2316V.07Zm152.47,153.29a48.49,48.49,0,0,1-27.18,22,17.37,17.37,0,0,1,6.84,4.31,43.84,43.84,0,0,1,6.3,8.43l9.18,14.71a6.94,6.94,0,0,1,.9,2.87,3.9,3.9,0,0,1-1.44,3,5,5,0,0,1-3.42,1.26q-3.78,0-6.3-4l-10.26-16.68q-6.86-11-21.61-11-17.1,0-29.88-7.8a51.11,51.11,0,0,1-19.72-22.42q-6.93-14.62-6.93-34.36,0-19.9,6.84-34.53a50.57,50.57,0,0,1,19.63-22.42Q1220,49,1237.27,49q17.46,0,30.25,7.81a50.69,50.69,0,0,1,19.62,22.33q6.84,14.53,6.84,34.44Q1294,137.13,1284.26,153.36Zm135.2-25.21q0,24.76-12.51,37.5t-36.63,12.73q-24.32,0-36.82-12.73T1321,128.15V55.32a5.67,5.67,0,0,1,1.53-4.21,6.13,6.13,0,0,1,8.1,0,5.67,5.67,0,0,1,1.53,4.21v74.09q0,39.1,38.17,39.11,18.9,0,28.53-9.87t9.63-29.24V55.32A5.74,5.74,0,0,1,1410,51.2a5.31,5.31,0,0,1,4-1.62,5.18,5.18,0,0,1,4,1.53,5.88,5.88,0,0,1,1.44,4.21Zm43.21,44a5.74,5.74,0,0,1-1.53,4.12,5.87,5.87,0,0,1-8.1,0,5.74,5.74,0,0,1-1.53-4.12V55.32A5.74,5.74,0,0,1,1453,51.2a5.87,5.87,0,0,1,8.1,0,5.74,5.74,0,0,1,1.53,4.12Zm156.9-10.5a36.66,36.66,0,0,1-16,12.38,60.08,60.08,0,0,1-23.67,4.39,78.76,78.76,0,0,1-25.66-4.21q-12.33-4.21-19.35-11.39a6.48,6.48,0,0,1-2.34-5.21,5.2,5.2,0,0,1,1.17-3.4,3.35,3.35,0,0,1,2.61-1.44,7.16,7.16,0,0,1,4.14,1.8,60,60,0,0,0,39.43,14q16.38,0,25.29-6.55t8.91-18.57a15.26,15.26,0,0,0-4.32-11.3,29.7,29.7,0,0,0-11-6.73,153.55,153.55,0,0,0-17.82-4.93,177.64,177.64,0,0,1-23.86-6.64,39.05,39.05,0,0,1-15.39-10.31q-6.3-6.9-6.3-18.57a32.1,32.1,0,0,1,5.67-18.75A36.75,36.75,0,0,1,1557,53.53,58.46,58.46,0,0,1,1580.59,49a67.3,67.3,0,0,1,23.4,4,47.34,47.34,0,0,1,18.19,11.57,7.24,7.24,0,0,1,2.34,5.2,5.23,5.23,0,0,1-1.17,3.41,3.37,3.37,0,0,1-2.61,1.44,7.11,7.11,0,0,1-4.14-1.8Q1606.86,65,1599,62a50.8,50.8,0,0,0-18.45-3.05q-16,0-25,6.82t-9,19q0,7.37,4,11.93a27.58,27.58,0,0,0,10.36,7.27,114.87,114.87,0,0,0,16.47,5.2l4.68,1.08q14.58,3.59,23,6.63a35.64,35.64,0,0,1,14.32,9.42q5.83,6.38,5.85,17.13A30.66,30.66,0,0,1,1619.57,161.61Zm128.09-33.46q0,24.76-12.51,37.5t-36.64,12.73q-24.3,0-36.82-12.73t-12.51-37.5V55.32a5.67,5.67,0,0,1,1.53-4.21,6.13,6.13,0,0,1,8.1,0,5.67,5.67,0,0,1,1.53,4.21v74.09q0,39.1,38.17,39.11,18.9,0,28.53-9.87t9.64-29.24V55.32a5.74,5.74,0,0,1,1.53-4.12,5.28,5.28,0,0,1,4-1.62,5.18,5.18,0,0,1,4,1.53,5.88,5.88,0,0,1,1.44,4.21Zm43.2,44a5.74,5.74,0,0,1-1.53,4.12,5.87,5.87,0,0,1-8.1,0,5.74,5.74,0,0,1-1.53-4.12V55.32a5.74,5.74,0,0,1,1.53-4.12,5.87,5.87,0,0,1,8.1,0,5.74,5.74,0,0,1,1.53,4.12Zm111.53-10.5a36.63,36.63,0,0,1-16,12.38,60.1,60.1,0,0,1-23.68,4.39,78.74,78.74,0,0,1-25.65-4.21q-12.33-4.21-19.35-11.39a6.45,6.45,0,0,1-2.34-5.21,5.15,5.15,0,0,1,1.17-3.4,3.32,3.32,0,0,1,2.61-1.44,7.18,7.18,0,0,1,4.14,1.8,60,60,0,0,0,39.42,14q16.38,0,25.3-6.55t8.91-18.57a15.26,15.26,0,0,0-4.32-11.3,29.7,29.7,0,0,0-11-6.73,153.8,153.8,0,0,0-17.83-4.93,177.44,177.44,0,0,1-23.85-6.64,39.05,39.05,0,0,1-15.39-10.31q-6.32-6.9-6.3-18.57a32.1,32.1,0,0,1,5.67-18.75,36.75,36.75,0,0,1,15.93-12.64A58.38,58.38,0,0,1,1863.41,49a67.32,67.32,0,0,1,23.41,4A47.22,47.22,0,0,1,1905,64.65a7.2,7.2,0,0,1,2.34,5.2,5.23,5.23,0,0,1-1.17,3.41,3.35,3.35,0,0,1-2.61,1.44,7.16,7.16,0,0,1-4.14-1.8Q1889.7,65,1881.87,62a50.85,50.85,0,0,0-18.46-3.05q-16,0-25,6.82t-9,19q0,7.37,4,11.93a27.62,27.62,0,0,0,10.35,7.27,115.28,115.28,0,0,0,16.47,5.2l4.68,1.08q14.6,3.59,23.05,6.63a35.53,35.53,0,0,1,14.31,9.42q5.85,6.38,5.85,17.13A30.66,30.66,0,0,1,1902.39,161.61Zm76.33-29a5.19,5.19,0,0,1-3.69,1.25h-40.87a5.19,5.19,0,0,1-3.69-1.25,4.21,4.21,0,0,1-1.35-3.23,4.72,4.72,0,0,1,1.35-3.5,5,5,0,0,1,3.69-1.34H1975a5,5,0,0,1,3.69,1.34,4.72,4.72,0,0,1,1.35,3.5A4.21,4.21,0,0,1,1978.72,132.64Zm48.88,11.66q0,16.32-7.11,24.31t-21.87,8.88l-5.41.36a8,8,0,0,1-5.13-1.08,4.18,4.18,0,0,1-1.71-3.59q0-4.49,5.22-4.66l5.23-.36q10.08-.72,14.85-6.19t4.77-18V55.32a5.41,5.41,0,0,1,1.71-4.12,5.48,5.48,0,0,1,3.87-1.62,5.41,5.41,0,0,1,4.14,1.53,5.88,5.88,0,0,1,1.44,4.21Zm103.52-36.42a5.19,5.19,0,0,1,3.69,1.26,5.44,5.44,0,0,1,0,7.17,5.19,5.19,0,0,1-3.69,1.26h-59.77v49.87h63.37a5.44,5.44,0,0,1,3.69,1.17,4.37,4.37,0,0,1,1.35,3.5,4.64,4.64,0,0,1-1.35,3.58,5.19,5.19,0,0,1-3.69,1.26h-68.41a5.9,5.9,0,0,1-4.23-1.62,5.17,5.17,0,0,1-1.71-3.94V56a5.2,5.2,0,0,1,1.71-3.95,5.93,5.93,0,0,1,4.23-1.61h68.41a5.23,5.23,0,0,1,3.69,1.25,4.67,4.67,0,0,1,1.35,3.59,4.43,4.43,0,0,1-1.35,3.41,5.19,5.19,0,0,1-3.69,1.26h-63.37v47.89Zm104.78,67.54a7.91,7.91,0,0,1-5.94,2.43,8.12,8.12,0,0,1-6.13-2.43,9.34,9.34,0,0,1,0-12.37,8.12,8.12,0,0,1,6.13-2.43,7.91,7.91,0,0,1,5.94,2.43,9.34,9.34,0,0,1,0,12.37ZM2263.08,93A110.94,110.94,0,0,1,2251,109.5a135.73,135.73,0,0,0-12.42,17,39.79,39.79,0,0,0-5.22,17c-.25,2.28-1.39,3.41-3.42,3.41a3.17,3.17,0,0,1-2.44-1.08,4.05,4.05,0,0,1-1-2.87,46.68,46.68,0,0,1,2.26-15,49.53,49.53,0,0,1,5.49-11.67q3.24-4.92,8.64-11.75a111.86,111.86,0,0,0,9.63-14.26A27.26,27.26,0,0,0,2255.7,77a16.08,16.08,0,0,0-6.12-13.19q-6.12-4.94-16.56-4.93a37.87,37.87,0,0,0-16,3.32,86.31,86.31,0,0,0-16.38,10.49,6.59,6.59,0,0,1-4.14,1.8,3,3,0,0,1-2.61-1.44,5.83,5.83,0,0,1-1-3.41,6.82,6.82,0,0,1,2.34-5.2,53.24,53.24,0,0,1,17.46-11.12,54.67,54.67,0,0,1,20.53-4.13q15.3,0,24.57,7.54A24.2,24.2,0,0,1,2267,76.49,32.93,32.93,0,0,1,2263.08,93Z"/><rect x="586" width="552" height="259"/><polyline points="586 259.18 586 868.18 2316 259.18"/><rect x="567" y="253.18" width="1749" height="7"/><rect y="0.42" width="589" height="868.18"/></svg>