<svg id="Layer_1" data-name="Layer 1" xmlns="http://www.w3.org/2000/svg" viewBox="0 0 2316 868.6"><defs><style>.cls-1{fill:none;}</style></defs><path d="M1237.25,58.73q-21.42,0-33.21,14.35t-11.79,40.36q0,26,11.79,40.46t33.21,14.44q21.42,0,33.3-14.35t11.88-40.55q0-26.19-11.79-40.45T1237.25,58.73Z"/><path class="cls-1" d="M1887.9,116.85q-8.46-3-23.05-6.63l-4.68-1.08a115.28,115.28,0,0,1-16.47-5.2,27.62,27.62,0,0,1-10.35-7.27q-4-4.58-4-11.93,0-12.19,9-19t25-6.82A50.85,50.85,0,0,1,1881.87,62q7.83,3,17.55,10.94a7.16,7.16,0,0,0,4.14,1.8,3.35,3.35,0,0,0,2.61-1.44,5.23,5.23,0,0,0,1.17-3.41,7.2,7.2,0,0,0-2.34-5.2,47.22,47.22,0,0,0-18.18-11.57,67.32,67.32,0,0,0-23.41-4,58.38,58.38,0,0,0-23.58,4.49,36.75,36.75,0,0,0-15.93,12.64,32.1,32.1,0,0,0-5.67,18.75q0,11.67,6.3,18.57a39.05,39.05,0,0,0,15.39,10.31,177.44,177.44,0,0,0,23.85,6.64,153.8,153.8,0,0,1,17.83,4.93,29.7,29.7,0,0,1,11,6.73,15.26,15.26,0,0,1,4.32,11.3q0,12-8.91,18.57t-25.3,6.55a60,60,0,0,1-39.42-14,7.18,7.18,0,0,0-4.14-1.8,3.32,3.32,0,0,0-2.61,1.44,5.15,5.15,0,0,0-1.17,3.4,6.45,6.45,0,0,0,2.34,5.21q7,7.17,19.35,11.39a78.74,78.74,0,0,0,25.65,4.21,60.13,60.13,0,0,0,23.68-4.39,36.63,36.63,0,0,0,16-12.38,30.66,30.66,0,0,0,5.67-18.21q0-10.76-5.85-17.13A35.53,35.53,0,0,0,1887.9,116.85Z"/><path class="cls-1" d="M1785.28,177.85a5.31,5.31,0,0,0,4-1.62,5.74,5.74,0,0,0,1.53-4.12V55.32a5.74,5.74,0,0,0-1.53-4.12,5.87,5.87,0,0,0-8.1,0,5.74,5.74,0,0,0-1.53,4.12V172.11a5.74,5.74,0,0,0,1.53,4.12A5.31,5.31,0,0,0,1785.28,177.85Z"/><path class="cls-1" d="M1370.32,178.38q24.12,0,36.63-12.73t12.51-37.5V55.32a5.88,5.88,0,0,0-1.44-4.21,5.18,5.18,0,0,0-4-1.53,5.31,5.31,0,0,0-4,1.62,5.74,5.74,0,0,0-1.53,4.12v74.09q0,19.38-9.63,29.24t-28.53,9.87q-38.17,0-38.17-39.11V55.32a5.67,5.67,0,0,0-1.53-4.21,6.13,6.13,0,0,0-8.1,0,5.67,5.67,0,0,0-1.53,4.21v72.83q0,24.76,12.51,37.5T1370.32,178.38Z"/><path class="cls-1" d="M1207.39,170.58q12.78,7.8,29.88,7.8,14.76,0,21.61,11L1269.14,206q2.52,3.94,6.3,4a5,5,0,0,0,3.42-1.26,3.9,3.9,0,0,0,1.44-3,6.94,6.94,0,0,0-.9-2.87l-9.18-14.71a43.84,43.84,0,0,0-6.3-8.43,17.37,17.37,0,0,0-6.84-4.31,48.49,48.49,0,0,0,27.18-22q9.72-16.23,9.72-39.74,0-19.91-6.84-34.44a50.69,50.69,0,0,0-19.62-22.33Q1254.74,49,1237.27,49q-17.28,0-30.06,7.81a50.57,50.57,0,0,0-19.63,22.42q-6.84,14.63-6.84,34.53,0,19.74,6.93,34.36A51.11,51.11,0,0,0,1207.39,170.58Z"/><path class="cls-1" d="M1534.86,162.78q7,7.17,19.35,11.39a78.76,78.76,0,0,0,25.66,4.21,60.08,60.08,0,0,0,23.67-4.39,36.66,36.66,0,0,0,16-12.38,30.66,30.66,0,0,0,5.67-18.21q0-10.76-5.85-17.13a35.64,35.64,0,0,0-14.32-9.42q-8.46-3-23-6.63l-4.68-1.08a114.87,114.87,0,0,1-16.47-5.2,27.58,27.58,0,0,1-10.36-7.27q-4-4.58-4-11.93,0-12.19,9-19t25-6.82A50.8,50.8,0,0,1,1599,62q7.83,3,17.56,10.94a7.11,7.11,0,0,0,4.14,1.8,3.37,3.37,0,0,0,2.61-1.44,5.23,5.23,0,0,0,1.17-3.41,7.24,7.24,0,0,0-2.34-5.2A47.34,47.34,0,0,0,1604,53.08a67.3,67.3,0,0,0-23.4-4A58.46,58.46,0,0,0,1557,53.53a36.75,36.75,0,0,0-15.93,12.64,32.1,32.1,0,0,0-5.67,18.75q0,11.67,6.3,18.57a39.05,39.05,0,0,0,15.39,10.31,177.64,177.64,0,0,0,23.86,6.64,153.55,153.55,0,0,1,17.82,4.93,29.7,29.7,0,0,1,11,6.73,15.26,15.26,0,0,1,4.32,11.3q0,12-8.91,18.57t-25.29,6.55a60,60,0,0,1-39.43-14,7.16,7.16,0,0,0-4.14-1.8,3.35,3.35,0,0,0-2.61,1.44,5.2,5.2,0,0,0-1.17,3.4A6.48,6.48,0,0,0,1534.86,162.78Z"/><path class="cls-1" d="M1457.09,49.58a5.31,5.31,0,0,0-4,1.62,5.74,5.74,0,0,0-1.53,4.12V172.11a5.74,5.74,0,0,0,1.53,4.12,5.87,5.87,0,0,0,8.1,0,5.74,5.74,0,0,0,1.53-4.12V55.32a5.74,5.74,0,0,0-1.53-4.12A5.31,5.31,0,0,0,1457.09,49.58Z"/><path class="cls-1" d="M1735.15,165.65q12.51-12.74,12.51-37.5V55.32a5.88,5.88,0,0,0-1.44-4.21,5.18,5.18,0,0,0-4-1.53,5.28,5.28,0,0,0-4,1.62,5.74,5.74,0,0,0-1.53,4.12v74.09q0,19.38-9.64,29.24t-28.53,9.87q-38.17,0-38.17-39.11V55.32a5.67,5.67,0,0,0-1.53-4.21,6.13,6.13,0,0,0-8.1,0,5.67,5.67,0,0,0-1.53,4.21v72.83q0,24.76,12.51,37.5t36.82,12.73Q1722.63,178.38,1735.15,165.65Z"/><path class="cls-1" d="M2230,160.62a8.12,8.12,0,0,0-6.13,2.43,9.34,9.34,0,0,0,0,12.37,8.12,8.12,0,0,0,6.13,2.43,7.92,7.92,0,0,0,5.94-2.43,9.34,9.34,0,0,0,0-12.37A7.92,7.92,0,0,0,2230,160.62Z"/><path class="cls-1" d="M2257.77,56.76q-9.27-7.55-24.57-7.54a54.67,54.67,0,0,0-20.53,4.13,53.24,53.24,0,0,0-17.46,11.12,6.82,6.82,0,0,0-2.34,5.2,5.83,5.83,0,0,0,1,3.41,3,3,0,0,0,2.61,1.44,6.59,6.59,0,0,0,4.14-1.8A86.31,86.31,0,0,1,2217,62.23a37.87,37.87,0,0,1,16-3.32q10.42,0,16.56,4.93A16.08,16.08,0,0,1,2255.7,77a27.26,27.26,0,0,1-3.15,13.18,111.86,111.86,0,0,1-9.63,14.26q-5.4,6.82-8.64,11.75a49.53,49.53,0,0,0-5.49,11.67,46.68,46.68,0,0,0-2.26,15,4.05,4.05,0,0,0,1,2.87,3.17,3.17,0,0,0,2.44,1.08c2,0,3.17-1.13,3.42-3.41a39.79,39.79,0,0,1,5.22-17,135.73,135.73,0,0,1,12.42-17A110.94,110.94,0,0,0,2263.08,93a32.93,32.93,0,0,0,4-16.5A24.2,24.2,0,0,0,2257.77,56.76Z"/><path class="cls-1" d="M2134.72,60a5.19,5.19,0,0,0,3.69-1.26,4.43,4.43,0,0,0,1.35-3.41,4.67,4.67,0,0,0-1.35-3.59,5.23,5.23,0,0,0-3.69-1.25h-68.41a5.93,5.93,0,0,0-4.23,1.61,5.21,5.21,0,0,0-1.72,3.95V171.39a5.18,5.18,0,0,0,1.72,3.94,5.9,5.9,0,0,0,4.23,1.62h68.41a5.19,5.19,0,0,0,3.69-1.26,4.64,4.64,0,0,0,1.35-3.58,4.37,4.37,0,0,0-1.35-3.5,5.44,5.44,0,0,0-3.69-1.17h-63.37V117.57h59.77a5.19,5.19,0,0,0,3.69-1.26,5.44,5.44,0,0,0,0-7.17,5.19,5.19,0,0,0-3.69-1.26h-59.77V60Z"/><path class="cls-1" d="M2022,49.58a5.48,5.48,0,0,0-3.87,1.62,5.41,5.41,0,0,0-1.71,4.12v88.62q0,12.56-4.77,18t-14.85,6.19l-5.23.36q-5.22.18-5.22,4.66a4.18,4.18,0,0,0,1.71,3.59,8,8,0,0,0,5.13,1.08l5.41-.36q14.76-.9,21.87-8.88t7.11-24.31v-89a5.88,5.88,0,0,0-1.44-4.21A5.41,5.41,0,0,0,2022,49.58Z"/><path class="cls-1" d="M1975,124.57h-40.87a5,5,0,0,0-3.69,1.34,4.72,4.72,0,0,0-1.35,3.5,4.21,4.21,0,0,0,1.35,3.23,5.19,5.19,0,0,0,3.69,1.25H1975a5.19,5.19,0,0,0,3.69-1.25,4.21,4.21,0,0,0,1.35-3.23,4.72,4.72,0,0,0-1.35-3.5A5,5,0,0,0,1975,124.57Z"/><path d="M1508.34,256.16h-33.57c-.36,0-.54.64-.54,1.9V378.19c0,1.27.18,1.9.54,1.9h33.57c.3,0,.46-.63.46-1.9V258.06C1508.8,256.8,1508.64,256.16,1508.34,256.16Z"/><path d="M1138,.07V0H586V.42H0V868.6H589v-1.48L2313.16,260.18H2316V.07Zm641.7,55.25a5.74,5.74,0,0,1,1.53-4.12,5.87,5.87,0,0,1,8.1,0,5.74,5.74,0,0,1,1.53,4.12V172.11a5.74,5.74,0,0,1-1.53,4.12,5.87,5.87,0,0,1-8.1,0,5.74,5.74,0,0,1-1.53-4.12Zm-458.71,0a5.67,5.67,0,0,1,1.53-4.21,6.13,6.13,0,0,1,8.1,0,5.67,5.67,0,0,1,1.53,4.21v74.09q0,39.1,38.17,39.11,18.9,0,28.53-9.87t9.63-29.24V55.32A5.74,5.74,0,0,1,1410,51.2a5.31,5.31,0,0,1,4-1.62,5.18,5.18,0,0,1,4,1.53,5.88,5.88,0,0,1,1.44,4.21v72.83q0,24.76-12.51,37.5t-36.63,12.73q-24.32,0-36.82-12.73T1321,128.15ZM1187.58,79.27a50.57,50.57,0,0,1,19.63-22.42Q1220,49,1237.27,49q17.46,0,30.25,7.81a50.69,50.69,0,0,1,19.62,22.33q6.84,14.53,6.84,34.44,0,23.5-9.72,39.74a48.49,48.49,0,0,1-27.18,22,17.37,17.37,0,0,1,6.84,4.31,43.84,43.84,0,0,1,6.3,8.43l9.18,14.71a6.94,6.94,0,0,1,.9,2.87,3.9,3.9,0,0,1-1.44,3,5,5,0,0,1-3.42,1.26q-3.78,0-6.3-4l-10.26-16.68q-6.86-11-21.61-11-17.1,0-29.88-7.8a51.11,51.11,0,0,1-19.72-22.42q-6.93-14.62-6.93-34.36Q1180.74,93.9,1187.58,79.27Zm73.07,443.09H1132.48V339.54h56.12v138h72.05ZM1382.56,578h-20.08V541.5h-68.7V578h-19.94V490.31a20.88,20.88,0,0,1,21-21h66.59a20.52,20.52,0,0,1,14.95,6.11,20.13,20.13,0,0,1,6.19,14.88Zm65.33-119.48h-66.82V321.7q0-10.17-1.73-13.49c-1.15-2.21-3.49-3.31-7-3.31q-9.87,0-9.87,15.72V458.56h-66.82V321.7q0-10-1.81-13.41t-7.08-3.39q-9.87,0-9.87,16.8V458.56h-66.82V306.9q0-28.2,18.26-46.08t47.4-17.88q34.57,0,53.16,29.75,11.35-16,24.36-22.89t32.1-6.86q30.27,0,46.41,17.88t16.13,51.48Zm14.78-286.45a5.74,5.74,0,0,1-1.53,4.12,5.87,5.87,0,0,1-8.1,0,5.74,5.74,0,0,1-1.53-4.12V55.32A5.74,5.74,0,0,1,1453,51.2a5.87,5.87,0,0,1,8.1,0,5.74,5.74,0,0,1,1.53,4.12Zm56.23,206.08q0,15.76-3.11,26.77t-7.45,11h-33.57q-4.41,0-7.49-11t-3.07-26.77V258.06q0-15.75,3.07-26.77t7.49-11h33.57q4.34,0,7.45,11t3.11,26.77Zm14.79-224a3.35,3.35,0,0,1,2.61-1.44,7.16,7.16,0,0,1,4.14,1.8,60,60,0,0,0,39.43,14q16.38,0,25.29-6.55t8.91-18.57a15.26,15.26,0,0,0-4.32-11.3,29.7,29.7,0,0,0-11-6.73,153.55,153.55,0,0,0-17.82-4.93,177.64,177.64,0,0,1-23.86-6.64,39.05,39.05,0,0,1-15.39-10.31q-6.3-6.9-6.3-18.57a32.1,32.1,0,0,1,5.67-18.75A36.75,36.75,0,0,1,1557,53.53,58.46,58.46,0,0,1,1580.59,49a67.3,67.3,0,0,1,23.4,4,47.34,47.34,0,0,1,18.19,11.57,7.24,7.24,0,0,1,2.34,5.2,5.23,5.23,0,0,1-1.17,3.41,3.37,3.37,0,0,1-2.61,1.44,7.11,7.11,0,0,1-4.14-1.8Q1606.86,65,1599,62a50.8,50.8,0,0,0-18.45-3.05q-16,0-25,6.82t-9,19q0,7.37,4,11.93a27.58,27.58,0,0,0,10.36,7.27,114.87,114.87,0,0,0,16.47,5.2l4.68,1.08q14.58,3.59,23,6.63a35.64,35.64,0,0,1,14.32,9.42q5.83,6.38,5.85,17.13a30.66,30.66,0,0,1-5.67,18.21,36.66,36.66,0,0,1-16,12.38,60.08,60.08,0,0,1-23.67,4.39,78.76,78.76,0,0,1-25.66-4.21q-12.33-4.21-19.35-11.39a6.48,6.48,0,0,1-2.34-5.21A5.2,5.2,0,0,1,1533.69,154.17Zm45.19,129.74q7.88,0,7.88-9.21V210.48h37.17v65.25q0,17.25-12.77,27.57t-34,10.33q-21.15,0-32.37-10t-11.21-28.83V210.48h37.17V274.7Q1570.74,283.91,1578.88,283.91Zm80.76,65.26H1557.5a1.09,1.09,0,0,0-1.23,1.24v78a1.09,1.09,0,0,0,1.23,1.23h102.14V452.9H1557.5A24.41,24.41,0,0,1,1533,428.38v-78a24.4,24.4,0,0,1,24.52-24.52h102.14Zm-10.46-221V55.32a5.67,5.67,0,0,1,1.53-4.21,6.13,6.13,0,0,1,8.1,0,5.67,5.67,0,0,1,1.53,4.21v74.09q0,39.1,38.17,39.11,18.9,0,28.53-9.87t9.64-29.24V55.32a5.74,5.74,0,0,1,1.53-4.12,5.28,5.28,0,0,1,4-1.62,5.18,5.18,0,0,1,4,1.53,5.88,5.88,0,0,1,1.44,4.21v72.83q0,24.76-12.51,37.5t-36.64,12.73q-24.3,0-36.82-12.73T1649.18,128.15ZM1761,395.67h-30.89V327.8H1706.5v67.87h-30.9V221.19h30.9v64.17h23.59V221.19H1761Zm113.85-88.42H1795v24.46h64.32v19.94H1795v24.46h79.88V396h-100V287.32h100Zm27.56-145.64a36.63,36.63,0,0,1-16,12.38,60.13,60.13,0,0,1-23.68,4.39,78.74,78.74,0,0,1-25.65-4.21q-12.33-4.21-19.35-11.39a6.45,6.45,0,0,1-2.34-5.21,5.15,5.15,0,0,1,1.17-3.4,3.32,3.32,0,0,1,2.61-1.44,7.18,7.18,0,0,1,4.14,1.8,60,60,0,0,0,39.42,14q16.38,0,25.3-6.55t8.91-18.57a15.26,15.26,0,0,0-4.32-11.3,29.7,29.7,0,0,0-11-6.73,153.8,153.8,0,0,0-17.83-4.93,177.44,177.44,0,0,1-23.85-6.64,39.05,39.05,0,0,1-15.39-10.31q-6.32-6.9-6.3-18.57a32.1,32.1,0,0,1,5.67-18.75,36.75,36.75,0,0,1,15.93-12.64A58.38,58.38,0,0,1,1863.41,49a67.32,67.32,0,0,1,23.41,4A47.22,47.22,0,0,1,1905,64.65a7.2,7.2,0,0,1,2.34,5.2,5.23,5.23,0,0,1-1.17,3.41,3.35,3.35,0,0,1-2.61,1.44,7.16,7.16,0,0,1-4.14-1.8Q1889.7,65,1881.87,62a50.85,50.85,0,0,0-18.46-3.05q-16,0-25,6.82t-9,19q0,7.37,4,11.93a27.62,27.62,0,0,0,10.35,7.27,115.28,115.28,0,0,0,16.47,5.2l4.68,1.08q14.6,3.59,23.05,6.63a35.53,35.53,0,0,1,14.31,9.42q5.85,6.38,5.85,17.13A30.66,30.66,0,0,1,1902.39,161.61Zm76.33-29a5.19,5.19,0,0,1-3.69,1.25h-40.87a5.19,5.19,0,0,1-3.69-1.25,4.21,4.21,0,0,1-1.35-3.23,4.72,4.72,0,0,1,1.35-3.5,5,5,0,0,1,3.69-1.34H1975a5,5,0,0,1,3.69,1.34,4.72,4.72,0,0,1,1.35,3.5A4.21,4.21,0,0,1,1978.72,132.64Zm48.88,11.66q0,16.32-7.11,24.31t-21.87,8.88l-5.41.36a8,8,0,0,1-5.13-1.08,4.18,4.18,0,0,1-1.71-3.59q0-4.49,5.22-4.66l5.23-.36q10.08-.72,14.85-6.19t4.77-18V55.32a5.41,5.41,0,0,1,1.71-4.12,5.48,5.48,0,0,1,3.87-1.62,5.41,5.41,0,0,1,4.14,1.53,5.88,5.88,0,0,1,1.44,4.21Zm103.52-36.42a5.19,5.19,0,0,1,3.69,1.26,5.44,5.44,0,0,1,0,7.17,5.19,5.19,0,0,1-3.69,1.26h-59.77v49.87h63.37a5.44,5.44,0,0,1,3.69,1.17,4.37,4.37,0,0,1,1.35,3.5,4.64,4.64,0,0,1-1.35,3.58,5.19,5.19,0,0,1-3.69,1.26h-68.41a5.9,5.9,0,0,1-4.23-1.62,5.18,5.18,0,0,1-1.72-3.94V56a5.21,5.21,0,0,1,1.72-3.95,5.93,5.93,0,0,1,4.23-1.61h68.41a5.23,5.23,0,0,1,3.69,1.25,4.67,4.67,0,0,1,1.35,3.59,4.43,4.43,0,0,1-1.35,3.41,5.19,5.19,0,0,1-3.69,1.26h-63.37v47.89Zm104.78,67.54a7.92,7.92,0,0,1-5.94,2.43,8.12,8.12,0,0,1-6.13-2.43,9.34,9.34,0,0,1,0-12.37,8.12,8.12,0,0,1,6.13-2.43,7.92,7.92,0,0,1,5.94,2.43,9.34,9.34,0,0,1,0,12.37ZM2263.08,93A110.94,110.94,0,0,1,2251,109.5a135.73,135.73,0,0,0-12.42,17,39.79,39.79,0,0,0-5.22,17c-.25,2.28-1.39,3.41-3.42,3.41a3.17,3.17,0,0,1-2.44-1.08,4.05,4.05,0,0,1-1-2.87,46.68,46.68,0,0,1,2.26-15,49.53,49.53,0,0,1,5.49-11.67q3.24-4.92,8.64-11.75a111.86,111.86,0,0,0,9.63-14.26A27.26,27.26,0,0,0,2255.7,77a16.08,16.08,0,0,0-6.12-13.19q-6.12-4.94-16.56-4.93a37.87,37.87,0,0,0-16,3.32,86.31,86.31,0,0,0-16.38,10.49,6.59,6.59,0,0,1-4.14,1.8,3,3,0,0,1-2.61-1.44,5.83,5.83,0,0,1-1-3.41,6.82,6.82,0,0,1,2.34-5.2,53.24,53.24,0,0,1,17.46-11.12,54.67,54.67,0,0,1,20.53-4.13q15.3,0,24.57,7.54A24.2,24.2,0,0,1,2267,76.49,32.93,32.93,0,0,1,2263.08,93Z"/><path d="M1361.42,489.25h-66.59a.93.93,0,0,0-1,1.06v31.26h68.7V490.31A.93.93,0,0,0,1361.42,489.25Z"/></svg>