<svg id="Layer_1" data-name="Layer 1" xmlns="http://www.w3.org/2000/svg" viewBox="0 0 251.41 251.31"><defs><style>.cls-1{fill:#f6f5ae;}</style></defs><path id="Tracé_13" data-name="Tracé 13" class="cls-1" d="M228,176.66l11.47,2.58a123.52,123.52,0,0,0,7-18.61l-10.36-5.51c.69-2.59,1.28-5.22,1.79-7.88l11.74-.6a126.06,126.06,0,0,0,1.73-19.77L240,124.35q0-4.12-.38-8.16l11.15-3.76A124.89,124.89,0,0,0,247.11,93l-11.7.67c-.78-2.67-1.65-5.29-2.61-7.88l9.72-6.62a126.36,126.36,0,0,0-8.74-17.69l-11.1,3.8q-2.24-3.57-4.71-7l7.57-9a127.7,127.7,0,0,0-13.15-14.64l-9.66,6.65c-2.09-1.91-4.25-3.75-6.48-5.5l4.86-10.7a125.71,125.71,0,0,0-16.58-10.52l-7.5,9q-3.83-1.94-7.82-3.57L171,8.41a124.63,124.63,0,0,0-18.78-5.6l-4.8,10.71q-4.22-.81-8.55-1.31L137.48.55Q131.66,0,125.72,0c-2.63,0-5.23.09-7.82.25l-1.73,11.6q-4.35.36-8.61,1L103.06,2A124.91,124.91,0,0,0,84.14,7l1.47,11.65q-4.08,1.53-8,3.36l-7.25-9.22a125.2,125.2,0,0,0-16.85,10l4.56,10.83Q54.58,36.2,51.3,39l-9.47-6.92A127.66,127.66,0,0,0,28.29,46.26l7.31,9.2q-2.64,3.39-5,7l-11-4.11a127.27,127.27,0,0,0-9.21,17.34l9.53,6.89q-1.61,3.93-2.92,8l-11.69-1a126.19,126.19,0,0,0-4.15,19.23l11,4.07q-.46,4.14-.63,8.37L0,123.4c0,.77,0,1.54,0,2.32a126.4,126.4,0,0,0,1.2,17.39l11.72.93q.66,4.13,1.61,8.14L4,157.4a124.54,124.54,0,0,0,6.48,18.7l11.54-2.26q1.72,3.72,3.71,7.29L17.06,189a126.14,126.14,0,0,0,11.33,16.3L38.89,200q2.61,3.06,5.45,5.93l-6.26,9.92a126.67,126.67,0,0,0,15.31,12.71l8.69-7.92q3.3,2.22,6.77,4.22L65.5,236.1a124.55,124.55,0,0,0,18.2,8.13l6.22-10q3.75,1.23,7.6,2.22l-.19,11.74a126.47,126.47,0,0,0,19.75,2.92l3.3-11.28c1.77.08,3.55.13,5.34.13.84,0,1.67,0,2.51,0l3,11.35A124.78,124.78,0,0,0,151,248.88l.14-11.74q3.84-.88,7.59-2l5.94,10.13a124.33,124.33,0,0,0,18.44-7.68l-3-11.35q3.46-1.87,6.78-4l8.45,8.16A126.34,126.34,0,0,0,211,218.05l-6-10.1q2.83-2.74,5.49-5.67l10.35,5.58a126.13,126.13,0,0,0,11.8-16.07l-8.48-8.11Q226.22,180.24,228,176.66Z"/></svg>